# xmcd CD database file
#
# Track frame offsets:
#	182
#	13992
#	30357
#	42175
#	54172
#	68860
#	81270
#	90430
#	106512
#
# Disc length: 1578 seconds
#
# Revision: 0
# Processed by: cddbd v1.5.2PL0 Copyright (c) Steve Scherf et al.
# Submitted via: CDex 1.70beta2
#
DISCID=5e062809
DTITLE=Orfeon - Salsa Volume 2
DYEAR=1900
DGENRE=Salsa
TTITLE0=Los Limones - Welfo
TTITLE1=De Todas Las Salsas - Lobo y us Tribu
TTITLE2=Controversia - Leo Soto
TTITLE3=Burundanga - Celia Cruz
TTITLE4=El Gallo Tuerto - Dile A Cataline - Johnny Laboriel
TTITLE5=Anacaona - Sonora Matacera
TTITLE6=Mi Socio - Lobo y Melon
TTITLE7=El Marinero
TTITLE8=Dancing Loco-Disco - Latino Sound Machine
EXTD=
EXTT0=
EXTT1=
EXTT2=
EXTT3=
EXTT4=
EXTT5=
EXTT6=
EXTT7=
EXTT8=
PLAYORDER=
